<?xml version="1.0" encoding="UTF-8"?>
<svg id="Layer_2" data-name="Layer 2" xmlns="http://www.w3.org/2000/svg" viewBox="0 0 591.25 591.25">
  <defs>
    <style>
      .cls-1 {
        fill: #295f46;
        stroke-width: 0px;
      }
    </style>
  </defs>
  <g id="Layer_1-2" data-name="Layer 1">
    <path class="cls-1" d="M568.01,180.55c-22.46-53.08-59.91-98.18-107.08-130.05-23.59-15.94-49.61-28.56-77.4-37.21C355.74,4.65,326.19,0,295.63,0c-40.76,0-79.7,8.27-115.08,23.24-53.08,22.46-98.18,59.91-130.05,107.08-15.94,23.59-28.56,49.61-37.21,77.4C4.65,235.51,0,265.06,0,295.63c0,40.76,8.27,79.7,23.24,115.08,15.3,36.16,37.56,68.61,65.12,95.71.56.61,1.16,1.2,1.79,1.74,12.4,11.99,25.84,22.91,40.18,32.6,23.59,15.94,49.61,28.56,77.4,37.21,27.79,8.64,57.34,13.3,87.9,13.29,40.76,0,79.7-8.27,115.08-23.24,53.08-22.46,98.18-59.91,130.05-107.08,15.94-23.59,28.56-49.61,37.21-77.4,8.64-27.79,13.3-57.34,13.29-87.9,0-40.76-8.27-79.7-23.24-115.08ZM43.13,295.63c0-.31,0-.62,0-.94,4.2,1.55,8.38,2.89,12.49,4.09,7.28,2.11,14.34,3.77,20.77,5.19,14.28,3.15,29.66,5.56,45.62,5.57,9.31,0,18.82-.83,28.35-2.91,9.52-2.08,19.06-5.42,28.2-10.36,9.71-5.25,18.37-11.55,26.24-18.3,7.87-6.75,14.95-13.95,21.52-21.14,5.8-6.36,11.27-12.75,16.59-18.97,7.97-9.33,15.63-18.24,23.44-26.09,3.91-3.92,7.84-7.58,11.87-10.92,4.02-3.34,8.13-6.35,12.38-9.01,7.43-4.65,15.36-8.13,23.56-10.46,8.19-2.33,16.64-3.49,25.06-3.49,10.29,0,20.53,1.74,30.18,5.2,9.66,3.46,18.74,8.62,26.86,15.53,6.18,5.26,12.23,11.1,18.6,17.13,4.78,4.53,9.74,9.16,15.14,13.68,4.05,3.39,8.34,6.71,13,9.82,6.97,4.66,14.78,8.85,23.56,11.92,8.77,3.08,18.45,4.99,28.88,5.38,1.96.07,3.92.11,5.9.11,7.02,0,14.18-.49,21.36-1.72,5.38-.93,10.79-2.28,16.11-4.21,1.66-.6,3.32-1.27,4.97-1.99,2.85,15.18,4.35,30.84,4.35,46.88,0,3.15-.06,6.29-.17,9.41-.41.56-.84,1.11-1.31,1.67-2.17,2.57-4.99,5.09-8.35,7.39-2.52,1.73-5.33,3.33-8.33,4.75-4.51,2.13-9.44,3.85-14.37,5.06-4.93,1.21-9.85,1.89-14.26,2.07-.96.04-1.9.06-2.82.06-4.8,0-9.1-.52-13.2-1.45-3.08-.7-6.05-1.65-9.02-2.85-4.45-1.8-8.92-4.17-13.56-7.14-4.64-2.97-9.43-6.54-14.48-10.62-20.23-16.35-41.38-31.51-63.79-45.17-8.76-5.34-17.7-9.32-26.7-11.94-9-2.62-18.05-3.86-26.87-3.85-9.27,0-18.28,1.35-26.86,3.7-7.51,2.05-14.71,4.86-21.6,8.19-12.06,5.84-23.21,13.27-33.69,21.45-7.86,6.14-15.34,12.71-22.51,19.41-10.74,10.06-20.77,20.44-30.11,30.14-9.33,9.7-17.98,18.72-25.69,25.96-5.84,5.49-11.66,10.51-17.44,14.56-2.89,2.03-5.77,3.82-8.63,5.33-2.86,1.52-5.71,2.76-8.56,3.73-2.99,1.02-6.13,1.77-9.42,2.27-3.28.5-6.7.74-10.23.74-6.97,0-14.35-.97-21.68-2.7-7.68-1.81-15.66-4.19-23.34-7.04-6.98-2.59-13.7-5.59-19.73-8.84-5.38-20.51-8.26-42.04-8.26-64.29ZM62.96,197.35c19.15-45.29,51.2-83.88,91.51-111.11,20.15-13.62,42.36-24.39,66.07-31.76,23.7-7.37,48.9-11.35,75.09-11.35,34.92,0,68.08,7.07,98.28,19.83,45.29,19.15,83.88,51.2,111.11,91.51,10.84,16.05,19.87,33.4,26.83,51.77-1.62,1.15-3.45,2.18-5.54,3.08-3.14,1.36-6.89,2.44-11.12,3.15-4.22.71-8.92,1.06-13.85,1.06-1.41,0-2.84-.03-4.29-.08-3.71-.14-7.04-.58-10.14-1.25-2.71-.59-5.24-1.37-7.7-2.31-4.29-1.66-8.37-3.87-12.52-6.66-3.11-2.09-6.25-4.52-9.48-7.24-4.84-4.08-9.87-8.84-15.28-13.99-5.42-5.14-11.22-10.68-17.72-16.21-12.16-10.36-25.86-18.13-40.28-23.29-14.42-5.16-29.56-7.73-44.72-7.73-12.39,0-24.79,1.71-36.84,5.13-12.04,3.42-23.73,8.55-34.66,15.39-8.12,5.08-15.46,10.81-22.21,16.83-10.13,9.04-18.97,18.75-27.26,28.27-8.28,9.53-16.03,18.88-23.78,27.37-5.8,6.35-11.7,12.3-17.75,17.49-6.05,5.19-12.25,9.63-18.68,13.1-5.28,2.85-10.88,4.85-16.89,6.17-6,1.31-12.42,1.92-19.15,1.92-11.53,0-23.96-1.81-36.29-4.55-4.03-.89-8.1-1.84-12.11-2.87-6.02-1.55-11.9-3.33-17.2-5.38-3.29-1.27-6.35-2.65-9.08-4.11,3.35-18.14,8.63-35.6,15.63-52.16ZM528.29,393.9c-19.15,45.29-51.2,83.88-91.51,111.11-20.15,13.62-42.36,24.39-66.07,31.76-23.7,7.37-48.9,11.35-75.09,11.35-34.92,0-68.08-7.07-98.28-19.83-13.18-5.57-25.79-12.25-37.72-19.89,7.38-1.66,14.79-3.91,22.14-6.95,10.16-4.2,20.16-9.94,29.61-17.51,5.59-4.47,10.64-9.24,15.3-14.13,6.99-7.33,13.11-14.92,18.83-22.29,5.72-7.37,11.06-14.54,16.36-21.12,4.16-5.17,8.52-10.05,13.04-14.47,6.79-6.64,13.94-12.25,21.41-16.47,3.74-2.11,7.55-3.89,11.48-5.3,3.93-1.42,7.97-2.48,12.2-3.15,2.89-.46,5.75-.68,8.58-.68,4.54,0,9.01.57,13.36,1.64,6.53,1.61,12.78,4.37,18.41,8.03,5.62,3.65,10.6,8.19,14.56,13.2,7.39,9.34,20.95,10.91,30.29,3.52,9.34-7.39,10.91-20.95,3.52-30.29-4.63-5.85-9.92-11.19-15.74-15.94-8.74-7.12-18.7-12.9-29.57-16.95-10.86-4.04-22.63-6.33-34.83-6.33-5.08,0-10.22.4-15.39,1.22-9.3,1.48-18.09,4.13-26.28,7.64-6.14,2.63-11.94,5.75-17.42,9.22-8.21,5.21-15.67,11.22-22.5,17.66-6.83,6.45-13.03,13.35-18.72,20.42-4,4.96-7.76,9.9-11.42,14.68-5.48,7.17-10.73,14-16.05,20.12-5.32,6.14-10.69,11.56-16.38,16.11-5.55,4.43-11.12,7.76-16.96,10.39-4.38,1.97-8.92,3.53-13.69,4.79-7.16,1.88-14.86,3.06-23.17,3.77-5.56.48-11.39.75-17.46.91-9.87-10.32-18.88-21.47-26.9-33.34-4.8-7.11-9.24-14.48-13.31-22.07,3.9,1.13,7.79,2.15,11.64,3.06,10.07,2.37,20.67,3.85,31.58,3.85,5.51,0,11.1-.38,16.71-1.23,5.61-.85,11.24-2.18,16.8-4.06,5.27-1.79,10.23-3.99,14.9-6.47,7.01-3.72,13.36-8.04,19.21-12.57,5.85-4.54,11.2-9.3,16.2-14,5.19-4.88,10.4-10.11,15.68-15.52,9.23-9.47,18.69-19.53,28.4-29.22,7.28-7.27,14.69-14.32,22.15-20.75,5.6-4.82,11.23-9.28,16.83-13.21,8.4-5.91,16.72-10.61,24.72-13.73,4-1.57,7.92-2.75,11.76-3.53,3.84-.79,7.61-1.19,11.38-1.19,4.86,0,9.72.66,14.84,2.14,5.12,1.49,10.51,3.83,16.29,7.35,20.61,12.56,40.19,26.58,59.12,41.88,5.2,4.21,10.55,8.25,16.19,12,4.23,2.81,8.64,5.45,13.27,7.83,6.94,3.57,14.41,6.56,22.42,8.63,8.01,2.07,16.55,3.19,25.49,3.19,1.53,0,3.07-.03,4.62-.1,7.57-.32,15.32-1.45,23.06-3.36,4.43-1.1,8.86-2.46,13.24-4.09-2.99,11.08-6.72,21.86-11.13,32.29Z"/>
  </g>
</svg>